<?xml version="1.0" encoding="UTF-8"?>
<svg width="55.6px" height="64px" viewBox="0 0 55.6 64" version="1.1" xmlns="http://www.w3.org/2000/svg" xmlns:xlink="http://www.w3.org/1999/xlink">
    <title>testride-shop@1x</title>
    <defs>
        <path d="M20.8,0 C32.2875227,0 41.6,9.30252798 41.6,20.7777777 C41.6,28.7146826 37.1450456,35.6121887 30.5967513,39.1112045 C28.8249221,40.0579639 25.9595261,41.4934662 22.0005635,43.4177116 L22,50 L19.6,50 L19.5980423,43.4139702 C15.6954644,41.5079635 12.8675246,40.0933305 11.1142229,39.1700713 C4.50533788,35.6899438 0,28.7594377 0,20.7777777 C0,9.30252798 9.3124772,0 20.8,0 Z" id="path-1"></path>
        <filter x="-22.8%" y="-19.0%" width="145.7%" height="138.0%" filterUnits="objectBoundingBox" id="filter-2">
            <feMorphology radius="2" operator="dilate" in="SourceAlpha" result="shadowSpreadOuter1"></feMorphology>
            <feOffset dx="0" dy="0" in="shadowSpreadOuter1" result="shadowOffsetOuter1"></feOffset>
            <feGaussianBlur stdDeviation="2.5" in="shadowOffsetOuter1" result="shadowBlurOuter1"></feGaussianBlur>
            <feComposite in="shadowBlurOuter1" in2="SourceAlpha" operator="out" result="shadowBlurOuter1"></feComposite>
            <feColorMatrix values="0 0 0 0 0   0 0 0 0 0   0 0 0 0 0  0 0 0 0.1 0" type="matrix" in="shadowBlurOuter1"></feColorMatrix>
        </filter>
    </defs>
    <g id="Store-Map" stroke="none" stroke-width="1" fill="none" fill-rule="evenodd">
        <g id="Test-ride-shop" transform="translate(-560.000000, -976.000000)" fill-rule="nonzero">
            <g id="testride-shop" transform="translate(567.000000, 983.000000)">
                <g id="2">
                    <use fill="black" fill-opacity="1" filter="url(#filter-2)" xlink:href="#path-1"></use>
                    <path stroke="#FFFFFF" stroke-width="2" d="M20.8,-1 C26.8197812,-1 32.2696221,1.43747281 36.2145494,5.37818524 C40.159864,9.31928459 42.6,14.7638881 42.6,20.7777777 C42.6,24.8666053 41.4717235,28.692135 39.5097974,31.9610629 C37.4802055,35.3427347 34.5577746,38.1284786 31.0680307,39.9931885 C30.2116896,40.4507659 29.1016872,41.0217908 27.7367762,41.7067249 L27.03747,42.0564933 C25.8602523,42.6434677 24.5146004,43.3057257 23.00051,44.0432585 L22.9999144,51 L18.6002972,51 L18.5982278,44.0383199 C14.9719961,42.2641691 12.3220624,40.9362719 10.6482912,40.054892 C7.12661187,38.200435 4.17488676,35.4110795 2.12409616,32.0173431 C0.141271221,28.7360792 -1,24.8900937 -1,20.7777777 C-1,14.7638883 1.4401358,9.31928491 5.3854502,5.3781856 C9.33037751,1.43747296 14.7802186,-1 20.8,-1 Z" fill="#282828" fill-rule="evenodd"></path>
                </g>
                <g id="1" transform="translate(6.028571, 9.619048)">
                    <path d="M15.8764873,15.9178017 L14.2102111,15.9854942 C14.0748262,15.9907013 13.9863053,15.839695 14.064412,15.7251385 L15.5276107,13.6006364 L14.6424015,13.6370862 C14.5903304,13.6370862 14.5434664,13.6683289 14.5122237,13.7099858 L12.543935,16.5686908 C12.4658283,16.6832473 12.5491421,16.8342536 12.6897342,16.8290465 L14.3560103,16.761354 C14.4913952,16.7561469 14.5799162,16.9071531 14.5018095,17.0217096 L13.0386107,19.1462117 L13.9238199,19.1097619 C13.9758911,19.1097619 14.0227551,19.0785192 14.0539978,19.0368623 L16.0222864,16.1781573 C16.095186,16.0636009 16.0118722,15.9125946 15.8764873,15.9178017 Z" id="battery" fill="#BDFBA2"></path>
                    <g id="bike" fill="#FFFFFF">
                        <path d="M16.8970814,2.58759258 C17.6052488,2.69694195 18.2717592,2.20747334 18.3811086,1.49930598 C18.490458,0.791138624 18.0009894,0.12462817 17.292822,0.0152787991 C16.5846546,-0.0940705722 15.9181442,0.395398042 15.8087948,1.1035654 C15.6994454,1.81173276 16.1837069,2.47824321 16.8970814,2.58759258 Z" id="3"></path>
                        <path d="M22.8436044,10.6429963 C19.6828868,10.6429963 17.1157802,13.2101029 17.1157802,16.3708205 C17.1157802,19.5315381 19.6828868,22.0986447 22.8436044,22.0986447 C26.0043219,22.0986447 28.5714286,19.5315381 28.5714286,16.3708205 C28.5714286,13.2101029 26.0043219,10.6429963 22.8436044,10.6429963 Z M22.8436044,21.0572221 C20.2608764,21.0572221 18.1572027,18.9535485 18.1572027,16.3708205 C18.1572027,13.7880925 20.2608764,11.6844188 22.8436044,11.6844188 C25.4263324,11.6844188 27.530006,13.7880925 27.530006,16.3708205 C27.530006,18.9535485 25.4315395,21.0572221 22.8436044,21.0572221 Z" id="2"></path>
                        <path d="M17.6000417,8.67991469 C17.6937697,8.83092097 17.8603973,8.924649 18.0426463,8.924649 C18.0426463,8.924649 18.0478534,8.924649 18.0478534,8.924649 L21.6980395,8.87778498 C21.9844307,8.87257787 22.2135437,8.63825779 22.2135437,8.35186658 C22.2083366,8.06547537 21.9792236,7.8363624 21.6928324,7.8363624 C21.6928324,7.8363624 21.6876253,7.8363624 21.6876253,7.8363624 L18.3290375,7.88322642 L15.6682028,3.62901516 C15.5900961,3.50925157 15.4703325,3.42073065 15.3245333,3.39469508 C15.1839413,3.36865952 15.0381421,3.3999022 14.9183785,3.483216 L9.38842459,7.48227872 C9.24783254,7.58642098 9.16451873,7.74784148 9.17493296,7.92488332 C9.18014007,8.09671805 9.2738681,8.25813855 9.42487438,8.34665947 L13.3458304,10.7471385 L11.023458,14.1994544 C10.1642844,12.1166092 8.11788904,10.6482034 5.72782421,10.6482034 C2.56710667,10.6482034 0,13.21531 0,16.3760276 C0,19.5367452 2.56710667,22.1038518 5.72782421,22.1038518 C8.88854175,22.1038518 11.4556484,19.5367452 11.4556484,16.3760276 C11.4556484,16.0844293 11.4296129,15.8032452 11.3879559,15.5272682 L14.5174308,10.8773163 C14.5955375,10.7575527 14.6267802,10.6169607 14.5955375,10.4763686 C14.5642948,10.3357766 14.480981,10.216013 14.3560103,10.1431134 L10.6381317,7.86760508 L15.0850061,4.6496093 L17.6000417,8.67991469 Z M5.72261709,21.0572221 C3.13988909,21.0572221 1.03621547,18.9535485 1.03621547,16.3708205 C1.03621547,13.7880925 3.13988909,11.6844188 5.72261709,11.6844188 C8.3053451,11.6844188 10.4090187,13.7880925 10.4090187,16.3708205 C10.4090187,18.9535485 8.3053451,21.0572221 5.72261709,21.0572221 Z" id="1"></path>
                    </g>
                </g>
            </g>
        </g>
    </g>
</svg>